:FULLY-SPECIFIED
:DEGREES
102
root -0.567874014377594 -0.567874014377594 -0.567874014377594 -0.5678755879732001 -0.5678755879732001 -0.5678755879732001
lhipjoint -9.671654586443837e-08 -1.5341245206083327e-07 1.0672170578144923e-06
lfemur -17.920092410248362 -2.5141911393778127 -15.914462001987477
ltibia 24.435423519901864 -8.349954478567336e-07 -2.1527484110402253e-06
lfoot -19.08010612567394 -1.3100852310685445e-06 12.302634916996286
ltoes -55.490290722975736 -9.335444003286943e-07 8.151349448704275e-07
rhipjoint 1.1005675908711953e-07 6.870210827458292e-07 -1.494104084495789e-06
rfemur -7.405822999109439 4.751885122096108 11.256722072976709
rtibia 3.647334677165149 1.5067290036928275e-07 4.0144903939448244e-08
rfoot -17.95838074318816 7.83556158882362e-07 -15.436259967627375
rtoes -3.915146394521349 -2.905082514947595e-07 -2.899841469721292e-07
lowerback 23.126569737177952 0.9693541073865496 -0.9285641109415277
upperback -0.21174967139108075 1.204462665553317 1.3250707862476367
thorax -13.085659756277595 0.6688941925193945 1.6098896746371685
lowerneck -11.457395592112624 -2.029057957114028 -1.9248847656666397
upperneck 23.5797988923852 -3.0151462414105206 2.3060364286666197
head 9.370881229926802 -1.331763944747426 0.7745436119620046
lclavicle -1.4085775951116125e-07 5.4855408257763046e-08 -1.0938974842598547e-06
lhumerus -18.1682622110989 24.414564122176646 12.48854412846757
lradius 35.22503407818328 -1.3461255464971423e-06 1.9345088247954297e-06
lwrist -1.0606101551857818e-06 -48.18472721691927 2.557386058280625e-07
lhand -4.562975323145072 2.6246558075710764e-07 -26.656099019086014
lfingers 7.125022823272814 9.845282338726802e-08 3.18924141240953e-07
lthumb 21.213298854421275 -1.2803152392500461e-07 2.20318914769186
rclavicle 1.398304276268298e-07 4.3880174074018323e-07 -1.3740421654916584e-06
rhumerus -21.753090412074673 -27.36950715525197 -8.881333397581662
rradius 41.93223886200078 -2.203951575635045e-06 -2.820060334313711e-06
rwrist 3.941622232304061e-07 40.29063704593407 8.811199027361924e-07
rhand -6.972260092956778 2.0321462048512455e-07 -36.68780446630613
rfingers 7.125022396385991 5.1024341088409163e-08 -3.1892353057445414e-07
rthumb 18.897492480477187 1.5447771905696147e-06 -65.78980959509936
103
root -0.567874014377594 -0.567874014377594 -0.567874014377594 -0.5678755879732001 -0.5678755879732001 -0.5678755879732001
lhipjoint -9.671654586443837e-08 -1.5341245206083327e-07 1.0672170578144923e-06
lfemur -17.97197623473107 -2.4100459090173394 -16.436998794250133
ltibia 25.303709610592442 -1.4252036012090574e-06 -4.812215873044231e-07
lfoot -19.492678579846682 8.361213133250968e-07 12.288699623542167
ltoes -56.740672963762464 -8.501689836866853e-07 1.94614242870935e-06
rhipjoint 1.1005675908711953e-07 6.870210827458292e-07 -1.494104084495789e-06
rfemur -6.922465025699624 4.690181620021036 11.561717340174459
rtibia 3.558625247442081 2.3357545758568918e-07 -1.6674511337447876e-06
rfoot -18.23329927237576 2.4306906217662095e-06 -15.60907912155433
rtoes -4.134039870155094 -3.105421837667364e-07 -3.9466693909169813e-07
lowerback 23.168445626979302 1.0917649711349298 -0.8631310054145114
upperback -0.40319980712547204 1.3930718294591664 1.4684502240262503
thorax -13.347293567529519 0.7686420617148492 1.681606340757185
lowerneck -11.457395592112624 -2.029057957114028 -1.9248847656666397
upperneck 23.5797988923852 -3.0151462414105206 2.3060364286666197
head 9.370881229926802 -1.331763944747426 0.7745436119620046
lclavicle -1.4085775951116125e-07 5.4855408257763046e-08 -1.0938974842598547e-06
lhumerus -22.3147197920519 21.97700962627708 18.688679937171557
lradius 38.72334085784792 -8.899430158669468e-07 1.1499660324064403e-06
lwrist -1.0155401177943217e-06 -47.16951521944525 2.4487179548118697e-07
lhand -4.562975323145072 2.6246558075710764e-07 -26.656099019086014
lfingers 7.125022823272814 9.845282338726802e-08 3.18924141240953e-07
lthumb 21.213298854421275 -1.2803152392500461e-07 2.20318914769186
rclavicle 1.398304276268298e-07 4.3880174074018323e-07 -1.3740421654916584e-06
rhumerus -26.308877814891954 -26.032658134667468 -13.349365676168972
rradius 46.06322264938912 -3.0603307322816938e-06 -4.112321838725084e-06
rwrist 3.8314600314681415e-07 39.61254952551354 8.564936566151814e-07
rhand -6.972260092956778 2.0321462048512455e-07 -36.68780446630613
rfingers 7.125022396385991 5.1024341088409163e-08 -3.1892353057445414e-07
rthumb 18.897492480477187 1.5447771905696147e-06 -65.78980959509936
104
root -0.567874014377594 -0.567874014377594 -0.567874014377594 -0.5678755879732001 -0.5678755879732001 -0.5678755879732001
lhipjoint -9.671654586443837e-08 -1.5341245206083327e-07 1.0672170578144923e-06
lfemur -17.781917683339003 -2.518945591370376 -16.833260756684886
ltibia 26.00186081169988 -1.6017434184694966e-06 -5.126111684555978e-07
lfoot -19.83469176479861 6.021149287467256e-07 12.403706348786843
ltoes -58.1182162514219 1.0191254425867671e-06 3.234677646144795e-06
rhipjoint 1.1005675908711953e-07 6.870210827458292e-07 -1.494104084495789e-06
rfemur -6.303705382183474 4.595775599086766 12.006295207024236
rtibia 3.5684329722033965 1.8312962122718205e-07 4.028666126160107e-08
rfoot -18.55727905037156 1.5039801902260448e-06 -15.739779913964401
rtoes -4.208393309459853 -3.1873300262681574e-07 -4.6544837697260967e-07
lowerback 22.74803553073397 1.2137247222329717 -0.7284668890168342
upperback -0.5308968904458982 1.5981413223779235 1.6580014204290325
thorax -13.348672411968215 0.8786219811738061 1.7741692778326095
lowerneck -11.457395592112624 -2.029057957114028 -1.9248847656666397
upperneck 23.5797988923852 -3.0151462414105206 2.3060364286666197
head 9.370881229926802 -1.331763944747426 0.7745436119620046
lclavicle -1.4085775951116125e-07 5.4855408257763046e-08 -1.0938974842598547e-06
lhumerus -24.57383388833759 20.327887771934183 28.350254018174102
lradius 42.312636002540884 -1.3987731409172207e-06 4.6758143505306124e-07
lwrist -1.0175935856744245e-06 -47.216985034176844 2.4536722412280916e-07
lhand -4.562975323145072 2.6246558075710764e-07 -26.656099019086014
lfingers 7.125022823272814 9.845282338726802e-08 3.18924141240953e-07
lthumb 21.213298854421275 -1.2803152392500461e-07 2.20318914769186
rclavicle 1.398304276268298e-07 4.3880174074018323e-07 -1.3740421654916584e-06
rhumerus -28.543346881104945 -25.074599452620827 -20.264942456090637
rradius 50.6853141135743 -2.9932901355949323e-06 -5.154981146844185e-06
rwrist 3.8902501675334365e-07 39.9767625328153 8.696347925592405e-07
rhand -6.972260092956778 2.0321462048512455e-07 -36.68780446630613
rfingers 7.125022396385991 5.1024341088409163e-08 -3.1892353057445414e-07
rthumb 18.897492480477187 1.5447771905696147e-06 -65.78980959509936
105
root -0.567874014377594 -0.567874014377594 -0.567874014377594 -0.5678755879732001 -0.5678755879732001 -0.5678755879732001
lhipjoint -9.671654586443837e-08 -1.5341245206083327e-07 1.0672170578144923e-06
lfemur -17.43916342286213 -2.8670259052959777 -16.966941219120375
ltibia 26.51128193320882 -1.931258247022099e-06 3.169025297965399e-07
lfoot -20.029150665563456 -7.760451645021174e-07 12.584119819297205
ltoes -59.33859347118476 5.556106901938625e-07 1.3187440749111105e-06
rhipjoint 1.1005675908711953e-07 6.870210827458292e-07 -1.494104084495789e-06
rfemur -5.849633979274204 4.449758961236587 12.551769482067087
rtibia 4.118576748761009 2.607602945590941e-07 -2.515337751392055e-06
rfoot -19.01849440426584 1.82088516268858e-06 -15.673429748819604
rtoes -4.105462785554584 -3.100659147865153e-07 -4.413306124896336e-07
lowerback 21.693976832355506 1.3311493344438308 -0.49133648813403724
upperback -0.5538192187438725 1.8135110607301772 1.8299449227600508
thorax -12.96994269135924 0.9915935234892285 1.806572228863679
lowerneck -11.457395592112624 -2.029057957114028 -1.9248847656666397
upperneck 23.5797988923852 -3.0151462414105206 2.3060364286666197
head 9.370881229926802 -1.331763944747426 0.7745436119620046
lclavicle -1.4085775951116125e-07 5.4855408257763046e-08 -1.0938974842598547e-06
lhumerus -24.910895186141254 19.367660504826063 40.1672462634832
lradius 45.64711727986818 -8.943426644355966e-07 2.108972986626308e-06
lwrist -1.0481814634903706e-06 -47.909894065096296 2.5274318487349757e-07
lhand -4.562975323145072 2.6246558075710764e-07 -26.656099019086014
lfingers 7.125022823272814 9.845282338726802e-08 3.18924141240953e-07
lthumb 21.213298854421275 -1.2803152392500461e-07 2.20318914769186
rclavicle 1.398304276268298e-07 4.3880174074018323e-07 -1.3740421654916584e-06
rhumerus -28.486640943068206 -24.211869720820054 -28.758477349392837
rradius 55.395313527472126 -1.979559320858927e-06 -6.799492593560011e-06
rwrist 4.1128760185727824e-07 41.30873138323783 9.19405435325529e-07
rhand -6.972260092956778 2.0321462048512455e-07 -36.68780446630613
rfingers 7.125022396385991 5.1024341088409163e-08 -3.1892353057445414e-07
rthumb 18.897492480477187 1.5447771905696147e-06 -65.78980959509936
